<?xml version="1.0" encoding="utf-8"?>
<!-- Generator: Adobe Illustrator 19.0.1, SVG Export Plug-In . SVG Version: 6.00 Build 0)  -->
<svg version="1.1" id="Layer_1" xmlns="http://www.w3.org/2000/svg" xmlns:xlink="http://www.w3.org/1999/xlink" x="0px" y="0px"
	 viewBox="0 0 200 200" style="enable-background:new 0 0 200 200;" xml:space="preserve">
<style type="text/css">
	.st0{fill:#FF0000;}
</style>
<path class="st0" d="M13.1,53.5v-0.8v-0.3l0.1-1.7v-0.3V49v-1.4V47v-0.4l0.1-0.7v-0.3v-0.1v-1.3v-0.1v-0.8v-0.4v-0.1v-0.2v-0.1v-0.1
	v-0.1V42v-0.4v-0.4v-0.1l0.1-1.6v-0.2v-1.5v-0.1v-0.2v-0.3v-0.1v-0.7v-0.1v-0.4l0.1-0.6v-0.9v-0.1v-2.4v-0.4v-0.4V31v-0.1l0.1-0.1
	l-0.1-0.4l0.1-1.3v-1.5v-0.4v-0.4v-0.3v-0.4V25l0.1-0.7v-0.4v-1.5V22h0.1h0.1h0.3h0.1h2.4h1h0.8h0.1l2.5,0.1h0.3h2.7h0.5h0.1H25
	l0.4,0.1h0.1h1.1h1l2.6,0.1h0.2h0.1h0.9h0.1h0.1h0.7h0.2h0.7h0.4h0.1h1h0.1h0.5h1.2l1,0.1h2.3h0.5h0.2H41h1.3h0.1H43h0.1h0.3H44h0.7
	H45h0.1l1.1,0.1h1.5H48h0.4h0.4h0.4l1.8,0.1h0.8h0.4h0.3h0.4h0.8H54l2.1,0.1h0.3h0.3h0.1h0.1H57h0.3h1l4.3,0.1h0.1h0.1h0.6h0.1h1h1
	l1.5,0.1h0.7h0.1H68h0.6h0.3h0.4h1l2.3,0.1h1.1h3.8h2.2h0.8h0.8h0.1h2.4H84h1h0.7h0.6h1.5l0.6-0.1h1.2H90h0.2h0.6h1H92h0.1h0.3h1
	h0.2H94h2h0.4h0.9h0.2H98h0.4h1.5h0.6h0.8h0.1h0.1h0.1h0.1h0.3h0.2h0.7h0.6h3.2V23l-0.1,0.4l-0.1,0.2l-0.3,0.3l-0.1,0.1l-0.4,0.4
	l-0.1,0.1l-0.1,0.1v0.1l0.1,0.1v0.1l-0.2,0.3l-0.1,0.1v0.1l-0.1,0.2v0.1l0.1,0.2V26l0.1,0.1l0.2,0.3l0.1,0.1l0.4,0.1l0.2,0.1h0.2
	h0.1h0.1h0.1l0.2-0.1l0.2-0.1l0.3-0.4l0.1-0.2v-0.1v-0.1v-0.1l-0.1-0.6l-0.1-0.3l0.1-0.1v-0.1l0.1-0.1l0.1-0.1v-0.1V24l-0.1-0.1
	l-0.1-0.1v-0.1v-0.1l0.1-0.3h0.1l0.1-0.1l0.1-0.1h0.1l0.4-0.1l0.1-0.1l0.3,0.1l0.1,0.1l0.1,0.1l0.1,0.2l0.2,0.5v0.3v0.1v0.1
	l-0.1,0.1v0.1v0.1l0.1,0.1l0.2,0.2l0.1,0.1l0.2,0.4v0.1v0.1v0.1v0.1V26v0.1v0.1v0.1v0.1l-0.1,0.4l-0.1,0.1l-0.5,0.6l-0.6,0.6
	l-0.3,0.1h-0.3h-0.1l-0.3,0.2l-0.1,0.2l-0.1,0.1l-0.1,0.4l-0.1,0.1l-0.1,0.1l-0.1,0.1l-0.1,0.4V30v0.1v0.1v0.1l-0.1,0.2v0.3l0.1,0.1
	h0.1v0.2l-0.2,0.5l-0.1,0.1V32l0.1,0.2v0.1l0.2,0.1h0.1l0.1,0.1l0.7-0.1h0.2l0.3,0.1l0.8,0.1l0.4,0.1l0.5,0.1l0.1,0.1l0.1,0.1v0.1
	l-0.1,0.2l-0.2,0.4l-0.4,0.4l-0.1,0.1l-0.6,0.2l-0.1,0.1l-0.4,0.4l-0.3,0.3v0.1l-0.1,0.2l-0.2,0.3l-0.1,0.1h-0.1l-0.2,0.2l-0.1,0.1
	l-0.1,0.2v0.1l0.1,0.1V37l0,0v0.1v0.2l0.1,0.1v0.1l0.1,0.4l0.1,0.1v0.1l0.1,0.1l0.2,0.2l0.2,0.1l0.1,0.1h0.2l0.2-0.2h0.2l0.6-0.2
	l0.3-0.1l0.5-0.2l0.4-0.1v-0.2l0.1-0.3L111,37l0.1-0.3v-0.1l0.3-0.3l0.1-0.1l0.2,0.1l0.1,0.1l0.2,0.3l0.1,0.3v0.1v0.3v0.2l-0.2,0.3
	l-0.1,0.1h-0.1l-0.1,0.2l-0.3,0.4l-0.1,0.1l-0.2,0.1h-0.1l-0.1,0.1l-0.7,0.4l-0.4,0.3l0.2,0.4l0.4,0.4l0.3,0.2h0.1l0.7,0.3l0.4,0.2
	h0.1l0.2,0.1l0.4,0.3l0.1,0.2l0.1,0.1V42v0.1l-0.1,0.1l-0.1,0.1h-0.1l-0.1,0.1h-0.1h-0.1l-0.4-0.1h-0.2l-0.4-0.1l-0.1-0.1l-0.3-0.2
	l-0.1-0.1l-0.3-0.4l-0.4-0.6l-0.1-0.2l-0.6-0.6l-0.1,0.1v0.3l-0.1,0.1l-0.1,0.3l-0.1,0.4l-0.3,0.5V42v0.4l0.1,0.2l0.1,0.1v0.1
	l0.1,0.1L109,43v0.1l0.2,0.2l0.1,0.1h0.1v0.1l0.4,0.2l0.2,0.1l0.1,0.1l0.5,0.2l0.2,0.1l0.4,0.1l0.1,0.1l0.1-0.1l0.3-0.2l0.4-0.2
	l0.1-0.1l0.1-0.1l0.4,0.1l0.1,0.1h0.1L113,44l0.2,0.2l0.1,0.1v0.1l0.1,0.1v0.4V45l-0.1,0.1V45l-0.1,0.1l-0.1,0.1l-0.1,0.1l-0.4,0.1
	v0.3l-0.1,0.1v0.1l-0.1,0.3l-0.1,0.5V47l0.1,0.1l0.1,0.1l0.2,0.1l0.2,0.1l1.1,0.2h0.4h0.2l0.1,0.1l0.4,0.1l0.3,0.1l0.3,0.1l0.1,0.2
	l-0.1,0.2v0.1l-0.1,0.2h-0.1l-0.3,0.4l-0.2,0.1v0.1l-0.1,0.1h-0.1l-0.2,0.2l-0.4,0.2l-0.1,0.1H114v-0.1l0,0.2l-0.2-0.3l-0.1-0.1
	l-0.3-0.1l-0.1,0.1h-0.1l-0.1,0.1l-0.1,0.1l-0.1,0.4l0.1,0.4v0.1l0.1,0.1l0.3,0.3l0.1,0.2h-0.1l-0.1,0.1l-0.1,0.2l-0.1,0.4v0.2v0.1
	l-0.1,0.1l-0.1,0.1l-0.1,0.1h-0.1h-0.1h-0.1h-0.1l-0.1-0.1v-0.1l-0.1-0.1v-0.1l-0.1-0.1l-0.4-0.4l-0.2-0.1l-0.2-0.1h-0.1H111
	l-0.1,0.1l-0.1,0.1v0.2l-0.1,0.1l-0.2,0.2l-0.3-0.3h-0.1h-0.3l-0.3,0.1l-0.2,0.2l-0.3,0.4l-0.1,0.1h-0.1v-0.1l-0.2-0.1l-0.1-0.1
	h-0.1l-0.8,0.4l-0.1,0.1l-0.1,0.1l-0.1,0.2l-0.1,0.1l-0.1,0.4l-0.1,0.4v0.1l-0.1,0.2v0.1v0.1l0.1,0.1v0.1v0.1l0.1,0.1v0.1l0.2,0.4
	h0.1l0.2,0.1l0.4,0.1l0.2,0.1h0.1l0.1,0.1h0.1h0.1h0.4h0.1h0.1l0.1-0.1l0.1-0.1h0.1l0.1-0.1l0.3-0.1l0.4-0.1l0.1,0.1l0.2,0.1
	l0.3,0.1l0.2,0.1l0.1-0.7l0.1-0.1v-0.1V55l-0.2-0.2l-0.1-0.3v-0.2l0.2-0.1l0.3,0.1l0.4,0.2l0.2,0.2l0.2,0.1l0.4,0.1l0.1,0.4v0.1
	l-0.1,0.1l-0.1,0.2l-0.1,0.1l-0.1,0.1l-0.1,0.1l-0.1,0.1H112l-0.2,0.1h-0.1l0.1,0.2v0.3l-0.1,0.2l-0.1,0.1l-0.9,0.5l-0.4,0.2
	l-0.1,0.1v0.1l0.1,1V59H110h-0.1h-0.4l-0.1-0.1l-0.4-0.3l-0.4-0.5l-0.1-0.1l-0.2-0.1l-0.1-0.1h-0.1l-0.1,0.1l-0.2,0.1l-0.1,0.2v0.1
	v0.1v0.1v0.1l0.1,0.1l0.1,0.1l0.1,0.1l0.2,0.1l0.7,0.1l1,0.2l0.3,0.1l0.1,0.1L110,60l0.1,0.2v0.2h0.1l-0.4,0.7l-0.2,0.2l-0.2,0.1
	l-0.4,0.1l-1.5,0.2l-0.1,0.1l-0.1,0.1h-0.1V62H107l-0.1,0.1l-0.1,0.1l-0.1,0.2l-0.1,0.1v0.1v0.1V63l-0.1,0.4l0.1,0.1h0.2l0.1,0.1
	l-0.1,0.2V64v0.1l0.1,0.1v0.1l-0.1,0.1l-0.2,0.1l-0.1,0.1h-0.1l-0.1,0.1l-0.1-0.1l-0.1,0.1l-0.1,0.1l-0.1,0.1l-0.6,0.6l-0.3,0.3
	l-0.4,0.3l-0.5,0.2H104v0.1l-0.1,0.1v0.1l0.1,0.1v0.1l0.2,0.2l0.5,0.4v0.1v0.1l-0.1,0.3l-0.1,0.1l-0.2,0.2l-0.1,0.1v0.1h-0.1h-0.2
	l-0.2-0.1l-0.1-0.1v-0.1l-0.1-0.1l-0.1-0.2l-0.1-0.1v-0.2V67l-0.1-0.5l-1.1,0.2l-0.2,0.1v0.1h-0.1h-0.1l-0.1,0.1v0.1l-0.1,0.1v0.1
	v0.1l-0.4,1.5V69l-0.1,0.7h-0.1v0.2v0.4l0.1,0.1l0.1,0.1h0.2l0.1,0.1v0.1l-0.1,0.1h-0.1l-0.1,0.1H101l-0.3,0.1l-0.2,0.1l-0.3,0.4
	l-0.5,0.9v0.1l-0.1,0.4V73v0.4v0.7l0.1,0.3l0.1,0.7v0.1v0.1l-0.1,0.4l-0.1,0.1v0.1L99.3,76l-0.1,0.1l-0.1,0.1h-0.3l-0.2-0.1
	l-0.9-0.3l-0.4-0.1l-0.2-0.1L97,75.4l-0.1-0.2l-0.1-0.1L96.7,75h-0.1l-0.1-0.1V75l-0.3,0.2l-0.1,0.1L96,75.4v0.1v0.1v0.1l-0.1,0.2
	l0.1,0.2v0.1l0.1,0.1l0.1,0.1l0.3,0.4l0.3,0.2l0.1,0.1l0.1,0.1h0.1H97h0.1v0.1h0.1h0.1l0.3-0.1h0.1l0.3-0.1l0.7-0.3h0.1h0.1H99h0.1
	l0.1-0.1H99l0.1,0.1h0.1h0.1h0.1l0.4,0.2l-0.1,0.2v0.2v0.1v0.1l-0.1,0.1v0.1v0.1L99.5,78l-0.1,0.1L99.3,78v0.1l-0.1,0.1L99,78.3v0.1
	h-0.1l-0.3,0.3h-0.1l-0.1,0.1l-0.2,0.1L98,79l-0.4,0.1l-0.2,0.1l-0.2,0.1h-0.1L97,79.2l-0.2-0.1l-0.3,0.1h-0.2h-0.1l-0.1,0.1H96
	l-0.1,0.1l-0.1,0.1v0.1v0.1v0.1l0.1,0.2H96l0.1,0.1v0.3L96,80.5v0.6V82v0.4l0.1,0.1l0.1,0.2l0.1,0.2l0.1,0.2l0.4,0.4l0.3,0.3
	l0.4,0.4l0.1,0.3l0.1,0.1v0.1v0.1V85l-0.1,0.2l-0.4,0.4h-0.8l-0.1-0.1h-0.1h-0.1L96,85.4l-0.1-0.1l-0.1-0.1l-0.1-0.1L95.6,85
	l-0.1-0.2l-0.1-0.1v-0.1l-0.2-0.9v-0.1l0.1-0.1v-0.1l-0.1-0.2v-0.1L95,83v0.1l-0.1,0.1l-0.1,0.1l-0.4,0.2l-0.1,0.1L94,83.9l-0.1,0.3
	v0.1l0.1,0.4l0.1,0.2l0.1,0.2l0.2-0.1v-0.1l0.2-0.1h0.1L95,85v0.1v0.1l-0.1,0.1v0.1v0.4v0.1l0.1,0.3v0.1v0.1l0.1,0.1v0.1l0.1,0.1
	l0.3,0.1l0.1,0.1l0.1,0.1l0.4,0.3l0.1,0.1l0.2,0.2l0.1,0.1v0.1v0.7v0.1l-0.1,0.3L96.1,89L96,89.1l-0.6,0.3h-0.1h-0.1l-0.4,0.1h-0.1
	h-0.1l-0.2,0.1h-0.1H94h-0.4L93,89.5l-0.4-0.1H92l-0.1,0.1l-0.2,0.1l-0.1,0.1l-0.1,0.1V90v0.1l0.1,0.3l0.3,0.3l0.6,0.4l0.4,0.3
	l0.4,0.4l0.2,0.2l0.1,0.4v0.1l0.1,0.1v0.3V93l-0.1,0l-0.2,0.4l-0.1,0.1l-0.1,0.2l-0.1,0.1l-0.5,0.6l-0.1,0.1v0.1l-0.1,0.1v0.4v0.1
	l0.1,0.2l0.1,0.1l0.1,0.1l0.2,0.1l0.4,0.4l0.4,0.4l0.3,0.3l0.2,0.1l0.1,0.1l0.1,0.2v0.2v0.2v0.1l0.2,0.3l-0.1,0.1l-0.2,0.4l-0.2,0.2
	L93.7,99l-0.6,0.2l-0.6,0.2l-0.4,0.2h0.4h2.9h1h0.1h0.2h0.1h0.1h0.3l2.1-0.1h0.1h0.3h0.6h1.6l3.3-0.1h0.5h0.2h1.6h2.3h0.9h0.4h0.2
	l0.6-0.1h2.1h0.3l1.5-0.1h1.1h0.1h0.4h0.3h0.5h0.6h0.3h1.4l0.1-0.1h0.1h0.2h0.4h0.1h0.7h2.1h0.6h0.1V99h2h0.1h0.1h0.6h0.7l2-0.1h0.2
	h0.1h0.1h0.1h0.3h0.2h0.5h0.1h0.4l0.1-0.1h1.4h0.1h0.1h0.1h0.4h0.3l1.7-0.1h1.2L138,99h1.8h0.3h0.7v-0.1h0.5h0.6h0.1h1h0.8l0.1-0.1
	h0.6h0.7h0.3h0.4h0.1l1-0.1h0.1h1h0.4h0.1h0.1l0.9-0.1h0.1h1h0.2h0.7h0.1l0.4-0.1h0.2h0.6h1.5v0.1h0.1h0.1l0.1-0.1h0.1l0.3-0.1h0.1
	l0.1,0.1v0.1l-0.1,0.1h-0.1v0.1h0.1h0.1v0.1l-0.1,0.4v0.1l-0.1,0.1H155h-0.1v0.1l0.1,0.1l0.2,0.1l0.1,0.1v0.1l-0.1,0.1h-0.1H155
	h-0.1l-0.2,0.2v0.1l-0.3,0.3l-0.1,0.3v0.1v0.1l0.2,0.1v0.1v0.1v0.1l0.1,0.3h0.1l0.1,0.1l-0.1,0.1v0.1l-0.1,0.1h-0.1l-0.1-0.1h-0.1
	l-0.1,0.1h-0.1v0.1v0.1v0.1l0.1,0.1h0.1v0.1h0.1v0.1v0.1v0.1h-0.1v0.1h-0.1l-0.2-0.1v0.1h0v0.1l0.1,0.2l0.1,0.3l-0.2,0.1h-0.1v0.1
	v0.1v0.1v0.1l0.3,0.2l0.1,0.1v0.1l-0.1,0.4l-0.1,0.1l-0.1-0.1h-0.1h-0.1v0.1v0.1l0.1,0.1v0.1h0.1l-0.1,0.1h-0.1h-0.1l-0.1,0.3v0.2
	l0.1,0.1v-0.1h0.1l0.1,0.1v0.1l0.1,0.2v0.1l-0.1,0.1h-0.1l-0.1-0.1l-0.2-0.1v0.1l-0.1,0.1v0.1v0.1l-0.1,0.3l-0.1,0.1l-0.1,0.1H153
	v0.1l0.1,0.1l0.1,0.1l0.1,0.1v0.1h-0.1v0.1h-0.1H153v-0.1h-0.1v-0.1v-0.1l-0.1-0.1h-0.1l-0.1,0.1v0.1v0.1l-0.1,0.3l-0.1,0.2
	l-0.1,0.3l0.1,0.1l0.1,0.1v0.1v0.1v0.1l0.1,0.1v0.2v0.1v0.1l0.1,0.1h0.1h0.1h0.1v0.1h-0.1l-0.1,0.1h-0.1h-0.2H152v0.1l0,0v0.2
	l0.1,0.1h0.1l0.2,0.1l-0.1,0.4h-0.1H152l-0.1,0.1l-0.1,0.1v0.1h-0.1h0.1v0.1l0.1,0.1h0.1l0.1-0.1l0.1,0.1l0.1,0.4H152l-0.1,0.3
	l-0.1,0.3l-0.1,0.1v0.1l0.1,0.1l0.1-0.1v-0.1l0.1-0.1l0.1,0.1l-0.1,0.1l-0.1,0.1l-0.1,0.1h-0.1h-0.1v-0.1v0.1h-0.1v0.1h-0.1h0.1v0.1
	h0.1l0.3,0.1h0.1h0.1l0.3,0.3v0.1l0.1,0.1l0.1,0.4l-0.1,0.4v0.1l0.1,0.1v0.1v0.1l-0.1,0.2h0.1h0.1h0.1h0.1v0.1l-0.1,0.2l-0.1,0.1
	v0.1v0.1l0.1,0.1h0.1l0.1,0.1l0.2,0.1h-0.1v0.1l0.1,0.4v0.1v0.1v0.1h0.1h0.1v-0.1h0.1h0.1h0.1l0.1,0.1h0.1v0.1l-0.1,0.1l-0.1,0.1
	l-0.1-0.1h-0.1v0.1v0.1v0.1l0.3,0.1l0.1,0.1v0.1h-0.1v0.1h0.1l0.1,0.1h0.1h0.1h0.1h0.1l0.1,0.2l0.1,0.3v0.1v0.2l0.1,0.1v0.2h0.2
	l0.1-0.1l0.1,0.1v0.1v0.2h0.1l0.1,0.1h0.2l0.1,0.1v0.1l0.3,0.1h0.1l0.2,0.1l0.1,0.1l0.1,0.2l0.1,0.2h0.1l0.1-0.1v0.1l0.1,0.1
	l0.1,0.3l0.1,0.1h0.1l0.1,0.1l0.2,0.3l0.1,0.2l-0.1,0.2l0.1,0.2l0.1,0.2l0.1,0.6l-0.1,0.1l-0.1-0.1v0.3l0.1,0.1l0.1,0.1l0.2,0.4
	l0.1,0.3l0.3,0.4l0.1,0.3l0.1,0.2l0.1,0.1l0.1,0.1l0.1,0.1v0.1l0.3,0.1l0.2,0.1v0.2v0.2v0.3l0.1,0.1v0.1l-0.1,0.2h-0.1l-0.2,0.1
	l-0.1,0.1v0.1v0.4v0.2l0.1,0.1l0.2,0.2l0.1,0.1v0.4v0.1v0.1v0.1h-0.1v0.1l0.2,0.2l0.1,0.1l0.2,0.1h0.1v0.1h0.1v0.1v0.1l-0.1,0.1v0.1
	v0.3v0.1v0.1l0.1,0.1l0.1,0.1h0.1l0.2,0.1l0.1,0.1v0.1h0.1l0.1,0.1l0.1,0.2v0.2l0.1,0.1l0.2,0.2l0.1,0.1l0.1,0.1h0.1h0.1l0.1-0.1
	h0.1l0.2-0.1l0.1-0.1l0.1-0.1l0.1-0.1l0.1-0.1h0.1h0.1h0.1l0.1,0.1l0.1,0.1l0.1,0.3l-0.2,0.1l-0.2,0.2l-0.6,0.1l-0.2,0.1l-0.1,0.2
	l-0.1,0.1l-0.5,0.4h-0.2l-0.1-0.1h-0.1l-0.2-0.1l-0.4-0.1l-0.1,0.1l-0.1,0.1l-0.1,0.1l-0.4,0.4l-0.1,0.1l-0.1,0.3l-0.2,0.4l-0.4,0.3
	h-0.1H158l-0.1,0.1v0.1l-0.1,0.4v0.1v0.2l-0.1,0.4l-0.4,0.2h-0.1l-0.4,0.1l-0.4,0.3l-0.1,0.1v0.1v0.2v0.1l0.5,0.7v0.1l-0.2,0.1
	l-0.3,0.1l-0.2-0.2l-0.2-0.1l-0.1-0.1l-0.2-0.1l-0.3-0.1l-0.2-0.1l-0.4-0.1h-0.1l-1,0.1l-0.1,0.1h-0.1L153,137l-0.2,0.3L152,137
	l0.2,1l0.2,0.7l0.1,0.1l0.2,0.4l0.3,0.2l0.4,0.2h0.4l1-0.2l0.9-0.3l0.2-0.2l0.4-0.3l0.3,0.1l0.2,0.3l-0.3,0.1l-0.5,0.3h-0.2
	l-0.1,0.3l0.1,0.2l0.1,0.5v0.1h0.1l0.1,0.1l0.7,0.8l0.1,0.1h0.1l0.4,0.3l0.1,0.1h0.1l0.7,0.1l0.4,0.1l0.7-0.1l0.8-0.3l0.5-0.4
	l0.2-0.7l-0.1-0.7l0.3-0.6v-0.5l0.2-0.5v-1l-0.2-0.4l0.3-0.2l0.7-0.2l1.6-1.1l0.2-0.3V135l-0.2-0.3l0.2-0.5l0.4-0.3l0.8,0.6l0.4,0.1
	l0.5,0.3l0.4,0.1l1.5-0.2l0.1,0.3l-0.1,0.4l-0.3,0.2l-0.4,0.1l-0.7,0.4l-0.2,0.1l-0.4,0.3v0.7l0.1,0.5l0.9,0.4h0.4l0.4,0.1l0.1,1.7
	l0.4,0.3l1.3-0.2l0.5-0.3l1-1.9l0.3-0.8l0.7-0.4l0.2,0.2l-0.1,0.8l1,0.1l-0.1,0.4l-0.2,1.4l-0.4-0.1H172l-0.6,0.2l-1.3,1l-0.1,0.4
	l0.4,0.2h0.7l0.6-0.2l1-0.1l0.1,0.1l0.1,0.4l-0.6,0.5l-0.5,0.2l-0.9,0.1l-0.7,0.3l-1.5,0.2L168,143v0.3l0.4,0.2l1,0.1l0.1,0.9
	l0.4,0.3h0.5l0.8-0.5l0.5-0.2v0.3l-0.2,0.1v1l0.5,0.3v0.2h-1.2l-0.4-0.1l-0.3-0.4l-0.4-0.2l-0.6-0.1l-0.4,0.2l-0.7-0.5l-0.3,0.1
	l-0.1,0.6l-0.5,0.7l-0.4,0.4l0.1,1.5l0.1,0.2l-0.8-0.1l-0.8-0.6l-0.5-0.3l-0.7-0.1l-0.8-0.4h-0.4l-0.7,0.3l-0.4-0.4l-0.8-0.1
	l-1.3-0.1l-0.5,0.1l0.1,1.1l0.1,0.4l0.9,0.4l0.7-0.1l0.2,0.1L161,149l0.1,0.2l0.8,0.4l0.6,0.1h0.7l1.6,1.5l0.1,0.2l-0.1,0.1
	l-0.2-0.1l-0.4-0.2l-0.6-0.3l-0.4-0.4l-1.6-0.1l-0.9-0.2l-0.4,0.1l-0.1-0.2l-0.3-0.4l-0.4-0.1l-0.2,0.1l0.4,1v0.4l-0.2,0.4l-0.4,0.1
	l-0.5-0.1l-0.4,0.1l-0.1,0.4l0.1,0.4l0.5,0.5l0.1,0.4l-0.5,0.7v0.4l0.1,0.7l-0.5,0.4l-0.1,0.1l-0.1,0.1v0.2l0.2,0.2l1,0.7l0.7-0.1
	l0.3,0.1l0.7,0.7l0.7,0.4l0.1,0.3l0.1,0.4l0.4,0.1l0.1-0.1v-0.2l0.3-0.4l0.1-0.1l0.4-0.4l0.7,0.4l-0.1,0.8l0.1,0.4l0.4,1l0.4,0.5
	h0.1l0.6-0.3l0.1-0.1l0.1-0.4l0.1-0.2l0.2,0.4l0.2,0.2l0.2,0.1h0.5l0.7,0.1l0.4-0.1h0.4h0.4l0.1-0.1h0.2l0.2,0.2l0.6,0.1h0.5
	l0.1,0.1l-0.4,0.5l-0.1,0.6l0.9,0.2l0.7-0.6l0.7,0.1l0.4,0.1l0.3,0.2l0.2,0.3l0.1,0.6l0.4,0.4l0.6-0.1v-0.1l0.1-0.3l0.5-0.5l0.1-0.2
	v-0.1l0.4,0.1h0.1v0.1l0.3,0.1l0.1,0.1v0.3l0.3,0.7l0.1,0.3l0.1,0.1l0.1,0.1l0.1,0.1h0.1l0.4,0.1l0.2,0.4v0.1l-0.1,0.1v0.1l0.2,0.4
	l0.3,0.1l0.1,0.1h0.1l0.6,0.3v0.1l0.1,0.2v0.2L178,166l-0.3,0.1l0.1,0.6l0.1,0.4l0.2,0.1l0.1,0.1l0.7-0.1v-0.1l0.5-0.2l0.8-0.3
	l0.2,0.1l0.2,0.2l0.4,0.9v0.1l0.1,0.2l0.1,0.1l-0.1,0.5v0.1H181l-0.2,0.1v-0.1h-0.1l-0.2-0.2l-0.7,0.3l-0.1,0.2l0.3,0.6l0.2-0.1
	l0.1,0.2l0.1,0.1l0.1,0.1l-0.1,0.1v0.1l-0.8,0.9l-0.1,0.1v0.1l-0.1,0.7l-0.1,0.2l-0.1,0.4l-1,0.1H178l-0.3-0.2l-0.5,0.1l-0.7,0.9
	l-0.4,0.7l-0.2,0.5v0.1l-0.1,0.1h-0.1l-0.2-0.1l-0.4-0.2v-0.1l0.1-0.2l-0.1-0.1l-0.1-0.1l-0.1-0.1l-0.2,0.1l-0.2-0.1l-0.3-0.4
	l-0.1-0.6v-0.1l-0.1-0.2l-0.3-0.4l-0.4-0.2l-0.6,0.1l-0.1,0.1l0.1,0.3l0.1,0.3l-0.1,0.3h0.3l-0.1,0.1h-0.1l-0.4,0.1H172l-0.4,0.3
	l-0.4,0.3l-0.1,0.1l0.1,0.1l-0.3,0.7l-0.4-0.1l-0.1,0.1v0.1h-0.1l-0.4,0.7v0.1l-0.1,0.2l-0.4,0.6l-0.2,0.4l-0.3,0.4l-0.3,0.3
	l-0.4,0.4l-0.2,0.1l-0.3-0.1l0.2-1l0.1-0.4l0.3-0.4l0.6-0.1l0.2-0.2l1.3-2.1l-0.2-0.4l-0.5-0.7l-0.7-0.4l-1.1-0.1l-0.1-0.7v-0.8
	l-0.3-0.4l-0.4-0.2l-0.1-0.1l-0.1-0.4l-0.4-0.7l-0.3-0.5l-0.3-0.3l-0.2-0.3h-0.1l-0.4-0.3l-0.1-0.1l-1.3-0.5l-0.3-0.1h-0.1h-0.1
	l-0.6-0.1l-0.2-0.1l-0.2-0.1l-1.3-0.3l-0.7-0.4l-0.1-0.1l-0.9-0.6l-0.5-0.3l-0.4-0.1h-0.1l-0.4-0.1l-1-0.3h-0.2h-0.4l-1.3-0.2
	l-0.2,0.1h-1.1h-1l-0.2-0.9l0.1-0.2l0.2-0.4l0.4-0.4l0.3-0.5l0.1-0.2l0.1-0.2v-0.4v-0.2l-0.1-0.2l-0.1-0.1l-0.1-0.3l-0.3-0.1
	l-0.3-0.1l-0.1-0.4l0.3-0.8l0.1-0.1V158l0.1-0.1l-0.1-0.1v-0.1l-0.2-0.1l-0.3-0.1l-0.4,0.1l-0.4,0.1L151,158l-0.6,0.6l-0.4,0.6
	l-0.7,0.1l-0.2-0.1l-0.1-0.1l-0.3-0.4l-0.1-0.1L148,158l-0.7,0.1l-0.2,0.4l-0.1,0.3l-0.2,0.5l-0.1,0.2v0.5v0.7l0.1,0.2v0.1l-0.1,0.1
	v0.3l-0.1,0.2v0.2l0.1,0.6v0.1l-0.1,0.8l0.2,0.6l0.5,0.1l0.1,0.3l-0.2,0.4l-0.1,0.1l-0.4,0.1l-0.4-0.1l-0.5,0.1l-0.1,0.1v0.2v0.1
	l-0.4,0.2l-0.5,0.1l-0.1-0.1l-0.2-0.1l-0.1,0.1l0.2,0.7l0.7,0.4l0.1,0.7l0.1,0.1h0.2l0.4-0.1h0.1l0.3-0.1l0.7-0.8l0.4-0.2l0.1-0.1
	l0.7-0.4l0.5-0.3l0.1-0.1l0.2-0.4l0.3,0.1l0.1,0.1l-0.1,0.1v0.1l-0.1,0.2l-0.3,0.2l-1.1,0.7l-0.1,0.1l-0.7,0.5l-0.6,0.6l-0.1,0.1
	l-0.5,0.5l-0.4,0.4l-0.3,0.1l-0.2,0.2L145,169l-0.4,0.3l-0.1,0.1l-1.2,0.9l-0.7,0.5l-0.4,0.4l-0.4,0.2l-1.3,0.6h-0.1l-0.2-0.1
	l-0.4,0.1l-0.5,0.1l-0.6,0.2l-0.1,0.1l-0.1,0.1l-1.8,0.7h-0.2l-0.1-0.3l0.9-0.4l0.7-0.1l0.4-0.1l0.4-0.1l0.6-0.3l0.2-0.1l0.2-0.1
	l0.1-0.3v-0.3l0.2-0.1h0.3v0l-0.3-0.2l-0.2-0.1l-0.7-0.1l-0.4-0.1l0.1-0.4l-0.6-0.7l-0.2-0.1v-0.5l0.1-0.3l0.2-0.1l0.4,0.3l0.2-0.1
	l0.1-0.4l-0.5-0.8l-0.5-0.1l-0.4-0.3v-0.7l-0.1-0.4l-0.6-0.4l-1.2,0.1v0.1l0.1,0.2l-0.2,0.2l-0.1,0.1H135l-0.2,0.1l0.1,0.7l-0.5,1.3
	l-0.3,0.2l-0.4,0.1l-0.4,0.1h-0.1l-0.1-0.1l-0.1-0.1l-0.4,0.1l-0.6,0.1v-0.1l0.1-0.1v-0.1v-0.1l-0.6-0.3l-0.4-0.2l0.1-0.1l0.8-0.3
	l0.1-0.6l0.1-0.3l0.4-0.5v-0.1l-0.7-0.3l-0.7-0.5l-0.5-0.1l-0.2,0.4l-0.3,0.2h-0.4l-0.5-0.1l-0.4-0.2l-0.6,0.4l-0.2,1v0.1v0.1
	l0.1,0.1l0.3-0.1l0.4,0.1l0.7,0.4v0.1v0.1v0.1l-0.4,0.2v0.4l-0.1,0.1l-0.4-0.1l-1.5,0.1l-0.2-0.3h-0.1l-0.2,0.1l-0.2,0.5l-0.1,0.7
	v0.1l0.1,0.1l0.1,0.2l-0.3,1.4l-1,0.4l-0.5-0.1h-0.3l-0.6,0.2l-0.4-0.2l-0.2,0.1l-0.9,0.3l-0.3,0.5L121,173l-0.1,0.1l-0.1,0.7
	l0.1,0.3l0.1,0.1l0.5,0.1h0.6l0.5-0.1l0.8-0.5l0.6,0.1l0.1,0.1l0.1,0.1h0.3h0.3l0.2-0.1l0.4-0.1l0.4-0.1l0.2-0.1l0.1-0.1h0.1v0.1
	l0.1,0.1v0.1l-0.4,0.2h-0.1l-0.2,0.1l-2.1,0.6l-0.3,0.1l-0.1,0.1h-0.2l-0.2,0.1h-0.2l-0.1,0.1h-0.2H122h0h-0.8h-0.1h-0.2l-0.2,0.1
	h-0.3h-0.2l-0.4-0.1l-0.1-0.1h-0.1v-0.2l0.1-0.2l-0.1-0.1l-0.1-0.3l-0.6-1.1h-0.1l-0.4-0.4l-0.3-0.4l-0.4-0.6l-0.9-0.8l-0.6-0.3
	l-0.2-0.5l-0.4-0.1l-0.1-0.1l-0.7,0.4l-0.7,0.1l-0.8-0.1l-0.2-0.3h-1l-1.2-0.2l-0.7-0.7l-0.5-0.3l-2.4-0.2l-0.7-0.1l-2.1-0.8
	l-0.8-0.7l-1.1-1.3l0.1-0.3h0.8l0.4-0.1l0.1-0.1h0.1v-0.1l0.4-0.5l0.1-0.1l0.1-0.6l0.1-0.4v-0.1h0.1l0.1-0.1v-0.1h0.1l0.5-0.3
	l0.4-0.1l0.1,0.1l0.4,0.4h0.5l0.4-0.4l-0.1-0.7l-0.6-0.7l0.1-0.3v-0.1l0.1-0.1l-0.2-0.4l-0.1-0.1l-0.7-0.1l-0.3-0.1l-0.3-0.1v-0.1
	l-0.1-0.5v-0.1l-0.1-0.2l-0.3-0.2l-0.2-0.1l-0.4,0.1l-0.7-0.1l-0.7-0.1h-0.1l-0.2-0.2l-0.1-0.1l-0.1-0.4l-0.4-0.4h-0.5l-1,0.1
	l-0.6-0.1l-0.2-0.1v-0.1l-0.1-0.1v-0.1l-0.1-0.3l-0.1-0.1l-0.1-0.2l-0.3-0.1h-0.4h-0.2l-1.2,0.4l-0.4,0.1l-0.5-0.1V156l0.2-0.4v-0.2
	l-0.1-0.2v-0.1l-0.1-0.1l-0.1-0.1v-0.1v-0.1l-0.1-0.9v-0.1l-0.1-0.1l-0.2-1l-0.1-0.2v-0.1l-0.3-0.1l-0.3-0.1l-0.4,0.1l-0.7,0.2
	l-0.8,0.2l-0.7-0.1l-0.1-0.1v-0.1l0.1-0.1h0.1l0.1-0.3l0.1-0.1l0.3-0.5l0.1-0.4l-0.1-0.2v-0.3l0.1-0.5l0.2-0.4V149l-0.1-0.6
	l-0.1-0.1l-0.3-0.2l-1-0.1h-0.1l-1.5,0.2l-0.9-0.4l-0.4,0.1l-1,0.2l-0.1,0.1L86,149l-0.5,0.4l-0.4,0.2l-0.2-0.1l-0.5-0.1v-0.1v-0.1
	l0.1-0.1l0.1-0.3v-0.2l-0.1-0.2l-0.1-0.3l0.1-0.3l0.1-0.4l0.5-0.9l0.1-1l-0.5-0.8l-0.7-0.3l-0.6,0.2l-0.3,0.6H83l-0.7-0.1l-0.7,0.3
	l-0.3,0.2L81,146l-0.1,0.1h-0.1l-1,0.3l-0.7,0.2l-0.7,0.4l-1.5,0.9l-0.2,0.1l-0.1,0.1l-1.1,1l-0.1,0.1l-0.1,0.7l0.5,1.1v0.3l0.3,0.6
	l0.3,0.7l0.1,0.2l0.3,0.1l0.3,0.1l0.9-0.1h0.1h0.1l0.4-0.1l0.1-0.1l0.7-0.1l0.4,0.3L80,153l0.1,0.1l0.2,0.1l1.2,0.1l0.8-0.1l0.2-0.1
	l0.1-0.2l0.2-0.6l0.8-0.1l0.1,0.1l0.5,0.2l0.5-0.1l0.1-0.1l0.7,0.1l0.1,0.1v0.2l0.1,0.1l0.5,0.4l0.7,0.2l0.6,0.2l0.2,0.2l0.1,0.2
	v0.2l1,0.1l0.9,0.4h0.1h0.1l0.1,0.1l-0.1,0.3l-0.7,0.6l-0.4,0.1l-0.7,0.5l-0.2,0.7v0.2l0.1,0.2v0.1l-0.4,0.2l-0.2,0.1l-0.4-0.2l0,0
	l-0.4,0.2l-0.2,0.3l-0.6-0.1l-0.4-0.2l-0.1-0.4l-0.4-0.3h-0.5l-0.3-0.1l-0.7-0.5h-0.3l-1.1-0.6l-0.7-0.1l-0.5-0.4l-1.4-0.7l-0.3-0.4
	l-0.2-0.1l-0.1-0.1h-0.7l-1.3-0.1l-1.8,0.2l0,0l-1.2,0.4l-0.3,0.1l-0.3,0.1l-0.6,0.4l-0.6,0.4l-0.1,0.1l-1,0.2H70l0,0h-0.1l-1.2-0.2
	l-1.9-0.4L65,155l-0.4-0.1l-0.1-0.1l-1-0.1l-0.5-0.1l-1.3-0.1l-1.5-0.3l-0.4-0.1h-0.1l-1.2-0.4l-1.3-0.4l-0.9-0.4l-0.9-0.3l-0.5-0.3
	h-0.1l-1-0.4l-0.3-0.1l-0.5-0.2l-1.1-0.6l-0.7-0.3l-0.1-0.1l-1.3-0.7l-0.8-0.4v-0.1h-0.1l-0.1-0.1l-0.3-0.1l-0.8-0.4l-1.1-0.4h-0.1
	h-0.1l-0.1-0.1l-1-0.3l-0.8-0.3l-0.7-0.3l-1.3-0.4l-1.8-0.5l-1.5-0.2h-0.1v-0.1H39h-1h-0.2h-0.1l-0.7,0.1h-0.2l-0.7,0.2l-0.8,0.2
	l-0.1,0.1l-0.1,0.1l-0.8-0.2l-0.9-0.1L32,147h-1.2h-0.1l-2.1,0.2l-1.8,0.2l-1.5,0.1l-1.5,0.1h-0.1l-0.4,0.1l-1.2,0.2l-0.4,0.1
	l-0.3,0.1l-0.5,0.1L20,149l-0.7,0.4l-0.7,0.5l-0.8-1.3l-0.2-0.4l-0.1-0.1L17,148l-0.1-0.1v-0.1l-0.1-0.3v-0.1l0.1-0.1v-0.1l-0.1-0.2
	l-0.1-0.2l-0.8-0.5l-0.1-0.1l-0.1-0.3v-0.2l0.1-0.3l0.1-0.3l0.2-0.3l0.1-0.1l0.4-0.2v-0.1h0.1l0.2-0.1l0.1-0.1l0.6-0.3l0.3-0.2H18
	l0.1-0.2l0.1-0.1l0.1-0.1l0.5-0.6l0.3-0.4l0.4-0.8l0.1-0.2l0.1-0.5l0.2-0.8l0.1-0.3l0.5-1l0.1-0.1l0.1-0.1l0.5-0.4h0.1l0.4-0.4
	l0.2-0.1l0.1-0.1l0.1-0.1l0.1-0.1v-0.4l0.1-0.1v-0.1l0.2-0.2h0.1l0.1-0.2l0.1-0.1l0.4-0.1h0.2l0.1-0.1h0.1v-0.1v-0.1v-0.1v-0.1h-0.1
	v-0.1l-0.1-0.1h-0.1l-0.2-0.1H23l-0.3-0.3l-0.1-0.1l-0.1-0.1l-0.1-0.1v-0.1v-0.1l0.1-0.1h0.1l0.1-0.1l0.1-0.1l0.4-0.3l0.1-0.1
	l0.2-0.1v-0.1h0.1v-0.1v-0.3V133l0.1-0.1v0.1v-0.2l0.1-0.1l0.1,0.1H24l0.1-0.2l-0.3-0.4l-0.1-0.1l-0.1-0.4v-0.1l-0.1-0.1v-0.1v-0.1
	l-0.1-0.1l-0.1-0.1l-0.2-0.5L23,130l0.1-0.4l0.1-0.1l0.1-0.1l0.1-0.5l0.1-0.1l-0.1-0.1v-0.2v-0.1l-0.1-0.7l0.1-0.1v-0.1v-0.1v-0.1
	l-0.1-0.1v-0.1l-0.1-0.1l-0.1-0.1l-0.1-0.1h-0.2l-0.1-0.1l-0.2-0.1l-0.1-0.1l-0.1-0.1l-0.1-0.1L22,126l-0.4-0.6h-0.1v-0.1l0.1-0.2
	l0.1-0.3l0.1-0.1l0.1-0.2v-0.3V124v-0.1v-0.5l-0.1-0.1v-0.1l0.1-0.1V123l0.1-0.1l0.1-0.1H22l0.2-0.2l0.1-0.1l0.3-0.4l0.2-0.2
	l0.7-0.4v-0.1l0.1-0.2v-0.1V121l-0.2-0.6l-0.1-0.4l0,0l-0.1-0.1v-0.1l-0.1-0.3l-0.1-0.4l0.1-0.2l0.1-0.2l-0.1-0.1v-0.1l-0.1-0.2
	v-0.1V118l-0.3-0.1l-0.1-0.1l-0.2-0.4l-0.1-0.1h0.1v-0.1l0.3-0.1V117l0.1-0.4l-0.1-0.4v-0.1V116l0,0l0.2-0.2l0.3-0.3l0.6-0.1
	l0.1-0.1l0.1,0.1l0.1,0.1l0.1-0.1l0.1-0.1l0.1-0.1v-0.1l-0.1-0.1v-0.1l-0.1-0.4v-0.1V114v-0.2l0.1-0.4v-0.1l0.4-0.6h0.1l0.1-0.1
	l0.4-0.3l0.3-0.1l0.2-0.1L26,112l0,0l0.3-0.5v-0.1v-0.1V111l0.1-0.3v-0.1l0.2-0.1v-0.1l0.1-0.1l-0.1-0.2l-0.2-0.4v-0.1l-0.1-0.1
	l0.1-0.2h0.1l0.1-0.1l0.1-0.2l0.4-0.2l0.1-0.1l0.1-0.4v-0.4l0.1-0.1l0.1-0.2l0.2-0.2H28l0.1-0.1h0.1l0.1-0.1l0.2-0.7v-0.2V106
	l-0.1-0.1v-0.2v-0.3v-0.1v-0.5v-0.1l-0.1-0.1h-0.1v-0.1l-0.1-0.1V104l0.1-0.2l0.1-0.1l0.1-0.2l0.1-0.3v-0.1l0.1-0.2l0.1-0.1l0.1-0.1
	h0.1H29l0.1,0.1l0.4-0.1l0.1-0.2V102l0,0l-0.2-0.4l-0.1-0.2h-0.1l-0.3-0.4h-0.1l-0.3-0.1l-0.2-0.3l-0.1-0.4V100l0.1-0.2l0.1-0.2
	l0.1-0.1l0.1-0.1l0.2,0.1l0.5-0.1h0.1l0.7-0.6v-0.1v-0.1v-0.1l-0.2-0.2l-0.3-0.5v-0.1l0.1-0.1l0.1-0.1l0.1-0.1v-0.1v-0.1v-0.1
	L29.8,97l-0.1-0.1l-0.1-0.1l-0.3-0.1L29,96.5l-0.1-0.4l-0.1-0.2l0.1-0.1v-0.2H29l0.2-0.3l0.1-0.3v-0.3L29,94.5v-0.1v-0.3v-0.2v-0.1
	l0.1-0.1l0.1-0.1l0.1-0.4V93l0.1-0.2l-0.1-0.1l-0.1-0.1h-0.4h-0.1l-0.3,0.1l-0.2,0.1h-0.1V93l0,0L28,93.1l-0.1,0.1h-0.1h-0.1h-0.1
	h-0.1L27.3,93l0,0l-0.1-0.1l-0.1-0.2L27,91.8l0.1-0.4l0.1-0.1L27,91v-0.1l-0.1-0.1l-0.1-0.1h-0.1v-0.4l0.1-0.3v-0.3v-0.1l-0.1-0.4
	h-0.1l-0.2,0.1h-0.1H26l-0.2-0.1l-0.3-0.3L25,88.2L24.8,88h-0.3l-0.1-0.1v-0.1l0.3-0.8l0.1-0.4l0.1-0.4V86l0.1-0.1v-0.1l0.1-0.1
	v-0.1L25,85.5v0.1v-0.1v-0.1v-0.1l0.1-0.1v-0.1L25,84.7l-0.1-0.2l-0.1-0.1l-0.1-0.1L24.3,84l-0.1-0.1H24l-0.1-0.1v-0.3l0.2-0.4V83
	L24,82.7l-0.1-0.1l-0.1-0.1l-1.2-0.9l-0.1-0.1v-0.1v-0.1v-0.1v-0.1l0.1-0.1h0.1l0.1-0.1l0.2-0.1l0.1-0.1l0.1-0.1l0.1-0.1l0.1-0.3
	l-0.1-0.1V80l-0.2-0.1L23,79.8l-0.1-0.1v-0.1v-0.1v-0.1h-0.1v-0.1h-0.1l-0.1-0.1l-0.1,0.1h-0.1l-0.1,0.1l-0.6-0.1h-0.1l-0.2-0.1
	L20.8,79l-0.7-0.8L20,78.1l0-0.2v-0.1L19.6,77l-0.1-0.3v-0.2v-0.3l0.4-0.4l0.1,0.1l0,0h0.1l0.1-0.3l-0.1-0.7v-0.2L20,74.2v-0.1V74
	l0.1-0.3l0.1,0.1l0.1-0.1l0.1-0.1l0.3-0.3l0.1-0.3v-0.1l-0.1-0.1v-0.1l-0.1-0.1v-0.1h-0.1v-0.1h-0.1v-0.1v-0.1v-0.3l-0.1-0.3v-0.1
	L20,71.3l-0.2-0.4l0.1-0.3l0.1-0.2v-0.1l0.1-0.1l0.1-0.4v-0.1l-0.2,0l-0.1-0.1l-0.1-0.1l-0.1-0.2v-0.1V69l-0.1-0.1l-0.2-0.1
	l-0.2-0.1l-0.5-0.4l-0.1-0.1L18.4,68v-0.4v-0.1v-0.2l-0.1-0.1L18.1,67L18,66.7v-0.1v-0.4l-0.2-0.3h-0.1l-0.1-0.2v-0.2l-0.1-0.2
	l-0.1-0.1h-0.2L17,65.3l-0.1,0.1l-0.1-0.1l-0.1-0.1l-0.1-0.4l-0.1-0.1l-0.2-0.1L16,64.5l-0.6-0.4l-0.2-0.3L15,63.7l-0.4-0.8
	l-0.1-0.1l-0.1-0.2l-0.1-0.3l-0.1-0.1L14.1,62L14,61.8l-0.1-0.1l-0.1-0.3l-0.2-0.1h-0.1h-0.1l-0.2,0.1H13v-0.1v-0.1v-0.1V61v-0.3
	v-1.9v-0.5l0.1-1.9v-0.2v-0.4V55v-0.4v-0.7V53.5z M186.4,138.9l-0.1-0.4l-0.1-0.1l-0.1-0.7l0.1-0.2v-0.2l-0.1-0.4l-0.1-0.4l-0.2-0.7
	l-0.4-0.5l-0.4-0.6l-0.4-0.4l0.4,0.1l0.5,0.6l0.5,0.8l0.3,0.5l0.3,1l0.3,1.4l0.1,1.8l-0.3,1.6l-0.1,0.9l-0.4,1.1l-0.6,1.7l-0.8,1.3
	l-1.6,2.4l-0.1-0.1l-0.1-0.1l0.1-0.5l0.3-0.3l0.1-0.1l0.3-0.4l0.3-0.2l0.7-1.2l0.5-1.1l0.1-0.5v-0.7l0.1-0.6l0.5-0.4l0.1-0.4
	l0.2-1.1v-0.1l-0.2-0.2l0.4-0.6v-1.6L186.4,138.9z"/>
</svg>
